# xmcd
#
# Track frame offsets:
#	150
#	19972
#	41189
#	57504
#	76726
#
# Disc length: 1343 seconds
#
# Revision: 3
# Processed by: cddbd v1.4PL0 Copyright (c) Steve Scherf et al.
# Submitted via: MusicWizard 6.0.2
#
DISCID=3b053d05
DTITLE=Red Hot Chili Peppers - The Hits
DYEAR=2003
DGENRE=rock
TTITLE0=Under The Bridge
TTITLE1=Give It Away
TTITLE2=Scar Tissue
TTITLE3=Otherside
TTITLE4=Californication
EXTD=YEAR: 2003
EXTT0=
EXTT1=
EXTT2=
EXTT3=
EXTT4=
PLAYORDER=
